<?xml version="1.0" encoding="iso-8859-1"?>
<!-- Generator: Adobe Illustrator 19.0.0, SVG Export Plug-In . SVG Version: 6.00 Build 0)  -->
<svg version="1.1" id="Layer_1" xmlns="http://www.w3.org/2000/svg" xmlns:xlink="http://www.w3.org/1999/xlink" x="0px" y="0px"
	 viewBox="0 0 512 512" style="enable-background:new 0 0 512 512;" xml:space="preserve">
<path style="fill:#2D2E30;" d="M439.861,487.168c0,13.714-11.118,24.832-24.832,24.832H96.971
	c-13.714,0-24.832-11.118-24.832-24.832V136.43c0-13.714,11.118-24.832,24.832-24.832h318.059c13.714,0,24.832,11.118,24.832,24.832
	V487.168z"/>
<path style="fill:#3E3E42;" d="M255.999,111.599H96.971c-13.714,0-24.832,11.118-24.832,24.832v350.738
	c0,13.714,11.118,24.832,24.832,24.832h159.029V111.599z"/>
<path style="fill:#F53000;" d="M329.654,192.136c-9.245,0-16.74-7.495-16.74-16.74v-85c0-31.383-25.531-56.914-56.914-56.914
	s-56.914,25.531-56.914,56.914v85c0,9.245-7.495,16.74-16.74,16.74s-16.74-7.495-16.74-16.74v-85
	C165.605,40.551,206.156,0,255.999,0s90.395,40.551,90.395,90.395v85C346.395,184.64,338.899,192.136,329.654,192.136z"/>
<path style="fill:#BF2717;" d="M255.999,0v33.481c31.383,0,56.914,25.531,56.914,56.914v85c0,9.245,7.495,16.74,16.74,16.74
	c9.245,0,16.74-7.495,16.74-16.74v-85C346.395,40.551,305.844,0,255.999,0z"/>
<path style="fill:#F53000;" d="M249.212,248.789c1.462-2.343,4.028-3.765,6.789-3.765s5.327,1.423,6.789,3.765l27.45,43.988
	l50.318,12.514c2.68,0.666,4.826,2.666,5.678,5.292c0.853,2.626,0.292,5.505-1.483,7.619L311.4,357.902l3.648,51.722
	c0.194,2.754-1.045,5.414-3.279,7.037c-2.234,1.623-5.146,1.98-7.705,0.944l-48.063-19.452l-48.063,19.452
	c-2.559,1.036-5.472,0.679-7.705-0.944s-3.473-4.282-3.279-7.037l3.648-51.722l-33.353-39.699c-1.776-2.114-2.337-4.994-1.483-7.619
	c0.854-2.625,3-4.626,5.678-5.292l50.318-12.514L249.212,248.789z"/>
<path style="fill:#BF2717;" d="M346.235,310.583c-0.853-2.626-3-4.626-5.679-5.292l-50.318-12.514l-27.45-43.988
	c-1.462-2.343-4.028-3.765-6.789-3.765l0,0v153.129l0,0l48.063,19.452c2.559,1.036,5.472,0.679,7.705-0.944s3.473-4.282,3.279-7.037
	l-3.648-51.722l33.353-39.701C346.527,316.089,347.089,313.208,346.235,310.583z"/>
<g>
</g>
<g>
</g>
<g>
</g>
<g>
</g>
<g>
</g>
<g>
</g>
<g>
</g>
<g>
</g>
<g>
</g>
<g>
</g>
<g>
</g>
<g>
</g>
<g>
</g>
<g>
</g>
<g>
</g>
</svg>
